HIERARCHY
ROOT hip
{
	OFFSET 0.000000 0.000000 0.000000 
	CHANNELS 6 Xposition Yposition Zposition Zrotation Xrotation Yrotation
	JOINT abdomen
	{
		OFFSET 0.000000 3.402643 0.000000 
		CHANNELS 3 Zrotation Xrotation Yrotation
		JOINT chest
		{
			OFFSET 0.000000 8.438565 -0.680529 
			CHANNELS 3 Zrotation Xrotation Yrotation
			JOINT neck
			{
				OFFSET 0.000000 10.207942 -0.272212 
				CHANNELS 3 Zrotation Xrotation Yrotation
				JOINT head
				{
					OFFSET 0.000000 3.130431 0.000000 
					CHANNELS 3 Zrotation Xrotation Yrotation
					End Site
					{
						OFFSET 0.000000 3.130435 0.000000 
					}
				}
			}
			JOINT lCollar
			{
				OFFSET 3.470700 6.669187 -0.816635 
				CHANNELS 3 Zrotation Xrotation Yrotation
				JOINT lShldr
				{
					OFFSET 3.198488 0.000000 0.000000 
					CHANNELS 3 Zrotation Xrotation Yrotation
					JOINT lForeArm
					{
						OFFSET 10.139888 0.000000 0.000000 
						CHANNELS 3 Zrotation Xrotation Yrotation
						JOINT lHand
						{
							OFFSET 8.370511 0.000000 0.000000 
							CHANNELS 3 Zrotation Xrotation Yrotation
							End Site
							{
								OFFSET 4.083176 0.000000 0.000000 
							}
						}
					}
				}
			}
			JOINT rCollar
			{
				OFFSET -3.470700 6.669187 -0.816635 
				CHANNELS 3 Zrotation Xrotation Yrotation
				JOINT rShldr
				{
					OFFSET -3.198488 0.000000 0.000000 
					CHANNELS 3 Zrotation Xrotation Yrotation
					JOINT rForeArm
					{
						OFFSET -10.139888 0.000000 0.000000 
						CHANNELS 3 Zrotation Xrotation Yrotation
						JOINT rHand
						{
							OFFSET -8.370511 0.000000 0.000000 
							CHANNELS 3 Zrotation Xrotation Yrotation
							End Site
							{
								OFFSET -4.083176 0.000000 0.000000 
							}
						}
					}
				}
			}
		}
	}
	JOINT lThigh
	{
		OFFSET 5.308129 -1.633274 1.361059 
		CHANNELS 3 Zrotation Xrotation Yrotation
		JOINT lShin
		{
			OFFSET -2.041588 -20.007561 0.000000 
			CHANNELS 3 Zrotation Xrotation Yrotation
			JOINT lFoot
			{
				OFFSET 0.000000 -19.190928 -1.224953 
				CHANNELS 3 Zrotation Xrotation Yrotation
				End Site
				{
					OFFSET 0.000000 -2.449906 4.627600 
				}
			}
		}
	}
	JOINT rThigh
	{
		OFFSET -5.308129 -1.633274 1.361059 
		CHANNELS 3 Zrotation Xrotation Yrotation
		JOINT rShin
		{
			OFFSET 2.041588 -20.007561 0.000000 
			CHANNELS 3 Zrotation Xrotation Yrotation
			JOINT rFoot
			{
				OFFSET 0.000000 -19.190928 -1.224953 
				CHANNELS 3 Zrotation Xrotation Yrotation
				End Site
				{
					OFFSET 0.000000 -2.449906 4.627600 
				}
			}
		}
	}
}
MOTION
Frames: 18
Frame Time: 0.033333
3.486340 50.526390 -2.485533 1.641273 1.610660 6.389402 -1.437125 2.684704 -5.088921 -2.817166 -3.296799 -7.671909 0.810547 -0.029296 -0.155836 0.899645 -2.968385 -0.207161 -7.041435 -0.720166 -4.061800 -71.584496 14.135499 11.152362 -8.043206 3.499659 -2.893635 7.349939 -15.302773 -8.804339 5.469596 9.989207 -0.957732 71.154419 -1.388437 12.767486 3.925020 22.069422 16.527723 -2.257007 0.637002 4.913494 -0.989353 -9.236330 -13.105327 -5.144314 18.712349 1.359028 0.998951 -3.117342 14.868646 -4.293017 -11.484741 1.811380 -1.119859 9.868748 -0.190297 3.242473 1.726925 -11.949864 
3.032932 50.385025 -3.266562 1.641274 1.610655 16.233154 -1.349236 2.772670 -8.958386 -2.728997 -3.248272 -13.758263 0.810547 -0.029296 -0.155836 0.899645 -2.968385 -0.207161 -7.297266 -0.744799 -4.040202 -68.408394 10.747778 9.703067 -8.433994 4.106280 -2.160503 5.493350 -15.045216 -8.870472 5.477979 10.009512 -0.947902 71.535202 -1.386138 13.167986 3.987254 21.772089 16.457796 -2.021822 1.579690 5.076031 -1.200588 -10.251152 -13.113784 -6.511937 27.558056 6.130392 4.284017 0.995786 7.488833 -5.422691 -11.691992 -7.352122 -1.578407 12.238711 0.059511 2.958084 0.280071 -12.781796 
2.573055 50.198715 -4.007749 1.641274 1.610650 26.008541 -1.300394 2.811779 -12.807516 -2.699523 -3.199579 -19.613670 0.810547 -0.029296 -0.155836 0.899645 -2.968385 -0.207161 -7.603365 -0.779361 -4.047151 -65.162613 7.020362 8.147432 -8.837292 4.897552 -1.331384 3.473968 -14.757351 -8.940809 5.477979 10.009512 -0.947902 71.625671 -1.385514 13.275435 4.009595 21.696095 16.437239 -1.963765 1.807066 5.117264 -0.218239 -10.505816 -12.964107 -7.800257 34.464554 10.992771 11.117200 4.310822 0.577112 -6.450979 -12.110665 -16.180546 -2.223324 14.956172 0.122677 2.493440 -1.212860 -13.844485 
2.154482 49.909218 -4.539951 1.641273 1.610646 34.319084 -1.349180 2.723855 -16.078680 -2.826594 -3.169974 -24.013851 0.810547 -0.029296 -0.155836 0.899644 -2.958619 -0.207312 -7.908691 -0.809328 -4.034611 -62.051613 3.191314 6.650986 -9.292923 5.617974 -0.510173 1.426807 -14.473429 -8.997512 5.469267 9.969682 -0.957681 70.906464 -1.401512 12.503800 3.883097 22.267578 16.574797 -2.418744 0.021376 4.808077 1.174876 -11.236883 -12.570466 -9.194852 40.680054 14.898604 17.554745 5.085055 -3.789311 -7.895223 -12.625733 -23.145531 -2.950864 18.298840 0.565493 2.765882 -3.223273 -15.390091 
1.813707 49.472828 -4.743815 1.641274 1.610648 40.100334 -1.563919 2.440495 -18.361389 -3.168884 -3.159233 -26.102552 0.810547 -0.029296 -0.155836 0.899629 -2.948856 -0.207621 -8.144340 -0.838734 -3.974324 -59.221203 -0.495883 5.341996 -9.802334 6.073322 0.207547 -0.539137 -14.204048 -9.045129 5.433637 9.869911 -0.987053 69.042595 -1.419319 10.511076 3.589975 23.642962 16.923111 -3.638981 -4.602384 4.029840 1.793012 -12.750742 -12.188046 -10.649655 46.038372 17.219690 21.404890 5.172801 -4.281838 -8.855103 -13.920217 -26.827961 -3.954076 22.527346 1.197771 3.054770 -5.708145 -17.926155 
1.542073 48.903946 -4.699101 1.641274 1.610655 43.625717 -1.876190 2.039920 -19.757408 -3.687279 -3.167267 -26.356979 0.810547 -0.029296 -0.155836 0.899621 -2.939090 -0.207622 -8.260599 -0.868335 -3.847522 -56.761814 -3.796888 4.355281 -10.342764 6.008283 0.716232 -2.311011 -13.955709 -9.097919 5.399056 9.739964 -1.026202 66.447975 -1.450070 7.775942 3.444378 24.895632 17.313000 -5.505634 -10.974944 3.006935 1.360551 -14.281213 -11.974967 -11.814218 49.962296 18.024406 21.330910 5.426979 -1.133185 -9.697010 -15.449585 -28.006290 -5.079755 27.336061 1.456400 3.798731 -8.687557 -20.026230 
1.319641 48.231480 -4.535363 1.641274 1.610662 45.500736 -2.168838 1.619934 -20.505068 -4.283891 -3.164977 -25.599018 0.810547 -0.029296 -0.155836 0.899621 -2.939090 -0.207622 -8.187882 -0.899362 -3.596829 -54.725491 -6.459676 3.823135 -10.924089 5.217523 0.912315 -3.732492 -13.764020 -9.125089 5.373682 9.590364 -1.065246 63.743027 -1.488498 4.982154 3.873157 24.882477 17.465639 -7.629494 -17.473570 1.955053 0.162534 -15.858479 -11.945953 -12.624596 53.229843 17.769506 18.000912 4.701570 4.538481 -9.975596 -17.876015 -27.916040 -6.501304 32.375103 2.755847 3.990822 -11.410588 -22.599203 
1.126473 47.484375 -4.382151 1.641274 1.610665 46.321053 -2.373657 1.297717 -20.825514 -4.880449 -3.152611 -24.653812 0.810547 -0.029296 -0.155836 0.899644 -2.958619 -0.207312 -7.885963 -0.912918 -3.212390 -53.151939 -8.233126 3.897652 -11.544501 3.482350 0.690729 -4.691216 -13.614030 -9.145944 5.376528 9.480216 -1.094487 61.559639 -1.521094 2.833030 5.308234 22.421635 17.122286 -9.374430 -22.494223 1.125939 -0.795189 -17.090780 -12.187650 -13.460644 55.550892 17.512636 12.487450 1.990941 11.319661 -10.319528 -20.094769 -27.730169 -8.052145 37.319332 3.586047 4.542053 -14.225692 -23.692974 
0.945754 46.685158 -4.336665 1.641274 1.610642 46.623779 -2.402814 1.131817 -20.919714 -5.388874 -3.120937 -24.180969 0.810547 -0.029296 -0.155836 0.899685 -3.017206 -0.206546 -7.316443 -0.917641 -2.673998 -52.044628 -8.984398 4.656867 -12.275978 0.708071 -0.011877 -5.141415 -13.562863 -9.150129 5.416236 9.428820 -1.104112 60.322350 -1.542193 1.817066 7.863741 16.761299 16.323185 -10.154786 -24.820063 0.772738 -1.198391 -17.956257 -12.385447 -14.158819 57.617535 17.664263 6.814412 -3.848207 17.458214 -10.790142 -22.434525 -28.106329 -9.776884 41.951847 4.949855 4.847680 -16.722315 -24.027843 
0.773193 45.830841 -4.366710 1.641274 1.610642 46.623779 -2.305114 1.102625 -20.893114 -5.750575 -3.089870 -24.159641 0.810547 -0.029296 -0.155836 0.899726 -3.066029 -0.205626 -6.579700 -0.893984 -2.076477 -51.289551 -8.937791 5.822897 -13.105866 -2.661552 -1.022200 -5.178970 -13.550658 -9.159843 5.474613 9.418860 -1.103972 59.743320 -1.561531 1.690081 10.936549 8.968471 15.536957 -10.069929 -24.987963 0.803828 -0.781902 -18.558346 -12.459274 -14.983905 59.513958 18.284071 0.947899 -12.104665 21.718769 -11.311930 -24.761362 -28.441647 -11.668295 46.271751 6.468817 5.079998 -18.844055 -24.151373 
0.607620 44.912029 -4.407741 1.641274 1.610669 46.467533 -2.148857 1.132020 -20.787605 -5.926663 -3.098614 -24.394783 0.810547 -0.029296 -0.155836 0.899726 -3.066029 -0.205626 -5.825610 -0.861307 -1.515807 -50.719139 -8.442666 7.039555 -14.042489 -6.100528 -2.176490 -4.977379 -13.585011 -9.155588 5.513851 9.427882 -1.103936 59.333839 -1.600566 2.022274 13.951771 0.561079 15.086284 -9.514168 -23.918936 1.067237 0.175584 -18.993851 -12.403094 -15.847917 61.328144 19.132729 -4.753900 -21.540737 23.424751 -11.869417 -27.078493 -28.897335 -13.808743 50.410587 8.151735 5.300007 -20.817667 -23.942549 
0.447869 43.919338 -4.395214 1.641274 1.610665 46.321053 -2.002372 1.171162 -20.691477 -5.868367 -3.166944 -24.719868 0.810547 -0.029296 -0.155836 0.899644 -2.958619 -0.207312 -5.163368 -0.805533 -1.128351 -50.148853 -7.825117 7.965268 -14.938463 -9.100857 -3.242429 -4.691216 -13.614030 -9.145944 5.528646 9.434643 -1.133510 58.604168 -1.658314 2.383811 16.501003 -6.868235 15.001168 -8.867365 -22.549614 1.369897 1.304901 -19.376030 -12.315376 -16.867582 63.049480 20.190937 -10.521507 -30.284815 22.310659 -12.460899 -29.389175 -29.370857 -16.357254 54.496998 10.377142 5.464555 -22.789724 -23.840786 
0.293323 43.083538 -4.280642 1.641274 1.610664 46.272228 -1.904696 1.171228 -20.654736 -5.556362 -3.343627 -24.963755 0.810547 -0.029296 -0.155836 0.899440 -2.704745 -0.211459 -4.701550 -0.778646 -0.983114 -49.400440 -7.383073 8.331275 -15.628826 -11.277250 -4.060963 -4.489891 -13.647827 -9.142268 5.486303 9.431864 -1.173012 57.212429 -1.736715 2.432759 18.288120 -12.105782 15.089417 -8.469422 -21.650438 1.552362 2.192107 -19.870361 -12.263682 -18.080029 64.790558 21.347771 -15.911782 -37.260159 18.679861 -13.052250 -31.667410 -30.001606 -19.529421 58.572178 13.126254 5.566332 -24.896904 -23.793245 
0.145594 41.981022 -4.079773 1.641274 1.610658 46.311283 -1.865604 1.141969 -20.656483 -5.058670 -3.570057 -25.111595 0.810547 -0.029296 -0.155836 0.899076 -2.157939 -0.220049 -4.438936 -0.765850 -1.071118 -48.451218 -7.134656 8.169149 -16.071781 -12.694135 -4.602837 -4.357338 -13.669667 -9.137582 5.396352 9.409714 -1.222419 55.266407 -1.844333 2.208175 19.384720 -15.302900 15.216358 -8.325332 -21.294191 1.629941 3.197393 -20.283676 -12.058649 -19.199455 66.232216 22.349911 -20.648773 -42.546543 13.718701 -13.458038 -33.729706 -30.549950 -23.473246 62.509464 16.835491 5.595823 -27.218407 -23.992481 
0.006840 40.889709 -3.824414 1.641273 1.610671 46.369877 -1.855808 1.093177 -20.677788 -4.463093 -3.826283 -25.172237 0.810547 -0.029296 -0.155836 0.898626 -1.171731 -0.235528 -4.335603 -0.767483 -1.343954 -47.354813 -7.037923 7.596634 -16.288517 -13.559676 -4.903741 -4.301984 -13.683137 -9.137012 5.254352 9.390590 -1.252205 53.022224 -1.961871 1.846786 19.952345 -16.969505 15.347423 -8.372242 -21.386621 1.604870 4.015571 -20.938435 -12.057004 -20.898085 67.811150 23.673325 -24.647076 -46.911568 8.699825 -13.702422 -35.617645 -30.981987 -30.012476 65.774666 22.758961 6.438574 -29.601435 -24.193113 
-0.120775 40.087543 -3.546368 1.641274 1.610665 46.399181 -1.855794 1.073654 -20.697632 -3.867154 -4.063023 -25.127935 0.810547 -0.029296 -0.155836 0.898461 0.410108 -0.260184 -4.342571 -0.783783 -1.762729 -46.165932 -7.050467 6.701291 -16.312952 -14.016613 -5.005455 -4.275622 -13.681153 -9.140701 5.084358 9.356854 -1.232680 50.727470 -2.069363 1.485344 20.190161 -17.642475 15.520717 -8.571820 -21.839952 1.502514 4.739293 -21.648458 -11.954627 -23.146639 69.692101 25.438459 -27.353565 -50.522736 4.893013 -13.786528 -37.260323 -31.301714 -34.276623 69.243477 26.896147 5.574713 -31.907484 -24.558561 
-0.235088 39.160358 -3.277442 1.641274 1.610665 46.321053 -1.865568 1.083409 -20.677921 -3.358774 -4.231026 -25.023481 0.810547 -0.029296 -0.155836 0.899462 2.734038 -0.296814 -4.440409 -0.819863 -2.278637 -44.943981 -7.163264 5.600490 -16.184774 -14.253058 -4.926800 -4.311797 -13.677856 -9.146253 4.893635 9.338798 -1.144165 48.641651 -2.177208 1.260676 20.263401 -17.824696 15.808311 -8.867365 -22.549614 1.369897 5.345442 -22.384317 -11.927600 -26.096645 71.631088 27.954157 -29.486267 -52.898907 2.355620 -13.755842 -38.679070 -31.545593 -41.056278 71.727142 33.426453 5.478196 -34.015327 -24.923187 
-0.334592 38.143829 -3.043449 1.641274 1.610654 46.096447 -1.855851 1.161500 -20.607216 -3.016352 -4.310451 -24.846056 0.810547 -0.029296 -0.155836 0.903156 5.858653 -0.346103 -4.588798 -0.845666 -2.852640 -43.724628 -7.311750 4.410936 -15.990883 -14.434625 -4.737945 -4.357338 -13.669667 -9.137582 4.669066 9.327700 -0.966851 46.944740 -2.265068 1.270522 20.349428 -17.936480 16.272501 -9.225528 -23.429543 1.204519 5.828152 -23.048124 -11.913945 -29.525995 73.540390 30.899765 -30.976854 -54.132961 1.015486 -13.718033 -39.880547 -31.747330 -47.946865 73.563004 40.086720 5.293374 -35.702522 -25.008802 
